<?xml version="1.0" encoding="utf-8"?>
<!-- Generator: Adobe Illustrator 16.0.0, SVG Export Plug-In . SVG Version: 6.00 Build 0)  -->
<!DOCTYPE svg PUBLIC "-//W3C//DTD SVG 1.1//EN" "http://www.w3.org/Graphics/SVG/1.1/DTD/svg11.dtd">
<svg version="1.1" xmlns="http://www.w3.org/2000/svg" xmlns:xlink="http://www.w3.org/1999/xlink" x="0px" y="0px"
	 width="83.019px" height="44.711px" viewBox="0 0 83.019 44.711" enable-background="new 0 0 83.019 44.711" xml:space="preserve">
<g id="Layer_1">
	<g>
		<defs>
			<rect id="SVGID_9_" x="-236.251" y="171.26" width="1280" height="1727"/>
		</defs>
		<clipPath id="SVGID_2_">
			<use xlink:href="#SVGID_9_"  overflow="visible"/>
		</clipPath>
	</g>
	<g>
		<path fill="#FFFFFF" d="M26.477,21.568c-0.028-0.139-0.067-0.288-0.098-0.441c-0.04-0.152-0.076-0.296-0.106-0.432
			c-0.038-0.137-0.056-0.238-0.067-0.298h-0.046l-0.329,1.461l-0.363,1.397h1.422l-0.35-1.393
			C26.527,21.806,26.506,21.706,26.477,21.568z"/>
		<path fill="#FFFFFF" d="M16.09,0.73c-0.03,0-16.09,0-16.09,0v43.286h16.043c12.438,0,22.509-9.206,22.509-21.644
			C38.552,9.948,28.505,0.73,16.09,0.73z M8.956,23.541c-0.007,0.4-0.061,0.751-0.169,1.034c-0.086,0.235-0.193,0.433-0.342,0.574
			c-0.138,0.163-0.3,0.278-0.477,0.375c-0.183,0.087-0.373,0.157-0.59,0.189c-0.211,0.043-0.435,0.063-0.662,0.063H4.718v-6.961
			h2.127c0.468,0,0.868,0.092,1.205,0.263c0.33,0.174,0.574,0.46,0.724,0.86c0.096,0.248,0.156,0.551,0.169,0.918
			c0.014,0.36,0.022,0.769,0.022,1.232C8.965,22.653,8.961,23.143,8.956,23.541z M11.257,25.777h-1.147v-6.961h1.147V25.777z
			 M16.674,23.617c0,0.33-0.051,0.633-0.15,0.908c-0.098,0.275-0.239,0.51-0.424,0.697c-0.182,0.197-0.407,0.348-0.678,0.459
			c-0.264,0.102-0.563,0.15-0.896,0.15c-0.361,0-0.676-0.055-0.941-0.163c-0.266-0.113-0.491-0.274-0.665-0.475
			c-0.179-0.198-0.309-0.433-0.396-0.703c-0.084-0.271-0.127-0.562-0.127-0.874v-2.703c0-0.27,0.039-0.537,0.125-0.8
			c0.084-0.257,0.212-0.486,0.391-0.687c0.176-0.196,0.398-0.357,0.662-0.484c0.27-0.113,0.584-0.176,0.952-0.176
			c0.274,0,0.536,0.041,0.764,0.114c0.229,0.08,0.429,0.188,0.601,0.329c0.177,0.137,0.321,0.307,0.439,0.49
			c0.115,0.19,0.203,0.396,0.254,0.613l-1.085,0.342c-0.027-0.098-0.058-0.195-0.103-0.287c-0.048-0.094-0.111-0.173-0.191-0.255
			c-0.078-0.069-0.172-0.128-0.29-0.175c-0.114-0.048-0.242-0.072-0.389-0.072c-0.177,0-0.324,0.031-0.45,0.094
			c-0.117,0.056-0.223,0.137-0.305,0.235c-0.078,0.092-0.136,0.201-0.172,0.323c-0.047,0.123-0.063,0.238-0.063,0.362v2.773
			c0,0.147,0.016,0.286,0.063,0.424c0.036,0.132,0.098,0.25,0.182,0.347c0.078,0.1,0.182,0.179,0.309,0.24
			c0.125,0.061,0.267,0.09,0.437,0.09c0.333,0,0.587-0.093,0.755-0.28c0.164-0.198,0.252-0.423,0.252-0.698v-0.822h-1.036v-0.99
			h2.177V23.617z M18.914,25.777h-1.151v-6.961h1.151V25.777z M22.259,25.777h-1.136v-5.92h-1.528v-1.041h4.204v1.041h-1.54V25.777z
			 M27.54,25.777l-0.39-1.502H25.22c-0.012,0.057-0.037,0.157-0.082,0.3c-0.04,0.144-0.08,0.288-0.122,0.452
			c-0.047,0.158-0.085,0.313-0.117,0.449c-0.038,0.141-0.066,0.237-0.088,0.301h-1.19l2.012-6.961h1.1l2.018,6.961H27.54z
			 M29.45,25.777v-6.961h1.138v5.878h2.694v1.083H29.45z"/>
		<path fill="#FFFFFF" d="M6.68,19.876H5.864v4.843h0.825c0.422,0,0.723-0.114,0.88-0.338c0.17-0.221,0.249-0.536,0.249-0.935
			v-2.044c0-0.467-0.088-0.843-0.249-1.114C7.399,20.014,7.107,19.876,6.68,19.876z"/>
		<path fill="#FFFFFF" d="M65.561,22.668h-1.003v2.026h1.017c0.18,0,0.326-0.026,0.441-0.075c0.123-0.056,0.224-0.133,0.295-0.227
			c0.073-0.101,0.124-0.213,0.156-0.338c0.029-0.128,0.045-0.266,0.045-0.399c0-0.297-0.077-0.534-0.22-0.714
			C66.139,22.754,65.9,22.668,65.561,22.668z"/>
		<path fill="#FFFFFF" d="M66.186,21.42c0.149-0.168,0.229-0.387,0.229-0.662c0-0.277-0.079-0.502-0.229-0.66
			s-0.392-0.24-0.726-0.24h-0.902v1.818h0.911C65.799,21.676,66.036,21.594,66.186,21.42z"/>
		<path fill="#FFFFFF" d="M60.983,20.256c-0.072-0.103-0.173-0.197-0.293-0.275c-0.126-0.072-0.282-0.113-0.478-0.113
			c-0.192,0-0.354,0.04-0.484,0.107c-0.132,0.07-0.23,0.154-0.312,0.259c-0.074,0.109-0.13,0.217-0.165,0.336
			c-0.029,0.122-0.045,0.235-0.045,0.345l0.004,2.66c0,0.334,0.081,0.613,0.23,0.845c0.155,0.228,0.417,0.337,0.781,0.337
			c0.262,0,0.486-0.088,0.675-0.265c0.195-0.179,0.28-0.419,0.28-0.723v-2.869c0-0.086-0.008-0.193-0.036-0.308
			C61.107,20.48,61.056,20.369,60.983,20.256z"/>
		<path fill="#FFFFFF" d="M46.601,20.256c-0.072-0.103-0.175-0.197-0.295-0.275c-0.122-0.072-0.283-0.113-0.477-0.113
			c-0.194,0-0.353,0.04-0.483,0.107c-0.131,0.07-0.23,0.154-0.311,0.259c-0.076,0.109-0.128,0.217-0.16,0.336
			c-0.043,0.122-0.055,0.235-0.055,0.345l0.008,2.66c0,0.334,0.079,0.613,0.232,0.845c0.154,0.228,0.414,0.337,0.782,0.337
			c0.256,0,0.479-0.088,0.669-0.265c0.193-0.179,0.287-0.419,0.287-0.723v-2.869c0-0.086-0.01-0.193-0.043-0.308
			C46.725,20.48,46.673,20.369,46.601,20.256z"/>
		<path fill="#FFFFFF" d="M75.535,19.857h-1.007v1.988h0.997c0.305,0,0.537-0.085,0.718-0.259c0.177-0.172,0.263-0.43,0.263-0.766
			c0-0.331-0.082-0.571-0.251-0.731C76.093,19.936,75.848,19.857,75.535,19.857z"/>
		<path fill="#FFFFFF" d="M60.663,0C48.316,0,38.309,10.011,38.309,22.354c0,12.352,10.008,22.356,22.354,22.356
			c12.348,0,22.355-10.005,22.355-22.356C83.019,10.011,73.011,0,60.663,0z M47.958,23.665c0,0.332-0.054,0.634-0.155,0.902
			c-0.104,0.27-0.248,0.492-0.436,0.685c-0.193,0.188-0.413,0.335-0.676,0.434c-0.266,0.102-0.546,0.146-0.862,0.146
			c-0.378,0-0.705-0.058-0.981-0.176c-0.268-0.129-0.491-0.294-0.661-0.508c-0.171-0.203-0.298-0.45-0.374-0.729
			c-0.079-0.276-0.123-0.566-0.123-0.87v-2.635c0-0.242,0.039-0.491,0.115-0.741c0.074-0.261,0.2-0.491,0.369-0.69
			c0.17-0.211,0.391-0.382,0.656-0.512c0.281-0.137,0.608-0.203,0.999-0.203c0.367,0,0.683,0.063,0.948,0.194
			c0.269,0.122,0.486,0.291,0.668,0.49c0.178,0.21,0.307,0.437,0.387,0.694c0.087,0.251,0.126,0.51,0.126,0.768V23.665z
			 M50.084,24.067c0.045,0.13,0.105,0.248,0.188,0.352c0.078,0.097,0.188,0.175,0.309,0.234c0.125,0.058,0.274,0.082,0.437,0.082
			c0.25,0,0.457-0.069,0.632-0.21c0.171-0.138,0.28-0.338,0.326-0.581l1.092,0.354c-0.114,0.481-0.355,0.861-0.721,1.13
			c-0.366,0.277-0.807,0.404-1.329,0.404c-0.36,0-0.671-0.055-0.938-0.163c-0.264-0.113-0.49-0.274-0.674-0.475
			c-0.176-0.198-0.312-0.433-0.395-0.703c-0.088-0.271-0.127-0.562-0.127-0.874v-2.703c0-0.27,0.039-0.537,0.127-0.8
			c0.083-0.257,0.21-0.486,0.395-0.687c0.172-0.196,0.398-0.357,0.664-0.484c0.261-0.113,0.584-0.176,0.948-0.176
			c0.559,0,1.015,0.149,1.368,0.443c0.347,0.292,0.579,0.656,0.693,1.097l-1.088,0.359c-0.019-0.099-0.053-0.195-0.105-0.29
			c-0.045-0.092-0.111-0.177-0.19-0.253c-0.076-0.079-0.177-0.138-0.283-0.185c-0.115-0.048-0.245-0.072-0.395-0.072
			c-0.169,0-0.323,0.031-0.442,0.094c-0.123,0.056-0.229,0.137-0.306,0.235c-0.079,0.092-0.14,0.201-0.185,0.323
			c-0.035,0.123-0.057,0.238-0.057,0.362v2.765C50.027,23.789,50.049,23.934,50.084,24.067z M57.57,19.857h-1.532v5.92h-1.142v-5.92
			h-1.531v-1.041h4.205V19.857z M62.342,23.665c0,0.332-0.056,0.634-0.156,0.902c-0.101,0.27-0.248,0.492-0.438,0.685
			c-0.189,0.188-0.413,0.335-0.676,0.434c-0.262,0.102-0.546,0.146-0.859,0.146c-0.38,0-0.705-0.058-0.984-0.176
			c-0.267-0.129-0.487-0.294-0.659-0.508c-0.169-0.203-0.292-0.45-0.373-0.729c-0.08-0.276-0.125-0.566-0.125-0.87v-2.635
			c0-0.242,0.038-0.491,0.117-0.741c0.077-0.261,0.201-0.491,0.369-0.69c0.174-0.211,0.391-0.382,0.665-0.512
			c0.265-0.137,0.6-0.203,0.99-0.203c0.369,0,0.685,0.063,0.952,0.194c0.267,0.122,0.488,0.291,0.663,0.49
			c0.175,0.21,0.306,0.437,0.392,0.694c0.08,0.251,0.122,0.51,0.122,0.768V23.665z M67.1,25.244
			c-0.358,0.359-0.838,0.533-1.441,0.533h-2.236v-6.961h2.131c0.655,0,1.16,0.171,1.484,0.512c0.332,0.339,0.492,0.806,0.492,1.385
			c0,0.3-0.063,0.567-0.184,0.819c-0.121,0.241-0.346,0.438-0.662,0.586v0.052c0.166,0.048,0.307,0.125,0.426,0.232
			c0.12,0.104,0.22,0.225,0.3,0.365c0.074,0.143,0.129,0.293,0.169,0.454c0.033,0.165,0.055,0.327,0.055,0.496
			C67.633,24.381,67.453,24.892,67.1,25.244z M72.527,19.876H69.8v1.859h2.35v1.048H69.8v1.911h2.728v1.083H68.66v-6.961h3.867
			V19.876z M76.455,25.777l-1.039-2.902h-0.888v2.902H73.39v-6.961h2.235c0.289,0,0.556,0.047,0.8,0.125
			c0.247,0.085,0.459,0.212,0.634,0.377c0.182,0.167,0.321,0.373,0.416,0.629c0.104,0.249,0.15,0.535,0.15,0.874
			c0,0.437-0.096,0.815-0.277,1.138c-0.187,0.318-0.464,0.561-0.836,0.727l1.193,3.092H76.455z"/>
	</g>
</g>
<g id="ai2html-settings">
</g>
<g id="specctr">
	<g id="Text_Properties">
	</g>
	<g id="Dimensions">
	</g>
	<g id="Object_Properties">
	</g>
</g>
</svg>
