<?xml version="1.0" encoding="utf-8"?>
<!-- Generator: Adobe Illustrator 16.0.0, SVG Export Plug-In . SVG Version: 6.00 Build 0)  -->
<!DOCTYPE svg PUBLIC "-//W3C//DTD SVG 1.1//EN" "http://www.w3.org/Graphics/SVG/1.1/DTD/svg11.dtd">
<svg version="1.1" id="Layer_1" xmlns="http://www.w3.org/2000/svg" xmlns:xlink="http://www.w3.org/1999/xlink" x="0px" y="0px"
	 width="512.923px" height="196.266px" viewBox="0 0 512.923 196.266" enable-background="new 0 0 512.923 196.266"
	 xml:space="preserve">
<g>
	<g>
		<g>
			<path fill="#FFFFFF" d="M96.075,196.266c-1.801,0-3.269-1.457-3.269-3.279v-64.708c0-1.821-0.21-3.316-0.444-3.384
				c-0.25-0.077-0.974,1.248-1.605,2.958l-8.085,21.034c-0.653,1.689-1.729,4.401-2.426,6.08l-5.552,13.512
				c-0.686,1.653-2.705,3.029-4.488,3.029H54.132c-1.821,0-3.846-1.376-4.513-3.029l-6.014-14.813
				c-0.666-1.681-1.769-4.399-2.411-6.076l-7.823-19.965c-0.661-1.68-1.406-3.028-1.646-2.951c-0.245,0.065-0.445,1.592-0.445,3.382
				v64.931c0,1.822-1.454,3.279-3.269,3.279H3.281c-1.797,0-3.281-1.457-3.281-3.279V48.317c0-1.827,1.484-3.271,3.281-3.271h22.356
				c1.796,0,3.846,1.35,4.53,3.017L45.249,84.15c0.693,1.666,1.812,4.411,2.482,6.091l12.561,31.715
				c0.672,1.676,1.445,3.032,1.746,3.032c0.303,0,1.076-1.356,1.732-3.045l12.208-31.869c0.645-1.728,1.729-4.464,2.44-6.131
				l14.86-35.88c0.68-1.667,2.729-3.017,4.515-3.017h23.011c1.799,0,3.283,1.443,3.283,3.271v144.669
				c0,1.822-1.484,3.279-3.283,3.279H96.075z"/>
			<path fill="#FFFFFF" d="M244.681,150.205c0,7.394-1.076,13.936-3.267,19.662c-2.157,5.712-5.228,10.543-9.126,14.454
				c-3.912,3.912-8.625,6.877-14.125,8.898c-5.512,2.037-11.589,3.047-18.232,3.047h-47.803c-1.816,0-3.271-1.457-3.271-3.279
				V48.317c0-1.827,1.455-3.271,3.271-3.271c17.862,0,36.503-1.563,54.196,1.325c4.96,0.775,9.843,1.998,14.533,3.86
				c10.658,4.254,18.06,12.667,20.475,23.964c0.946,4.325,1.619,9.046,1.619,13.438c0,5.636-1.394,11.258-4.14,16.836
				c-2.739,5.578-7.312,9.657-13.688,12.274c0,0.589,1.364,1.692,2.978,2.41c0,0,3.466,1.576,5.92,3.901
				c2.482,2.301,4.506,4.951,6.093,7.905c1.587,2.978,2.783,6.125,3.491,9.462C244.315,143.758,244.681,147.028,244.681,150.205z
				 M212.103,88.709c0-5.087-1.249-8.836-3.73-11.32c-2.466-2.424-6.641-3.674-12.613-3.674h-12.128
				c-1.802,0-3.272,1.479-3.272,3.267v24.092c0,1.813,1.471,3.297,3.272,3.297h9.091c1.792,0,4.757-0.228,6.527-0.477
				c0,0,6.657-0.975,9.123-3.886C210.854,97.111,212.103,93.337,212.103,88.709z M214.025,148.462c0-5.087-1.255-9.123-3.791-12.173
				c-2.542-3.034-6.643-4.571-12.272-4.571h-14.331c-1.802,0-3.272,1.493-3.272,3.313v28.168c0,1.824,1.471,3.307,3.272,3.307
				h10.828c1.808,0,4.734-0.248,6.528-0.543c0,0,7.252-1.218,9.575-4.684C212.876,157.804,214.025,153.553,214.025,148.462z"/>
			<path fill="#FFFFFF" d="M269.882,196.266c-1.783,0-3.277-1.457-3.277-3.279V48.317c0-1.827,1.494-3.271,3.277-3.271h24.967
				c1.813,0,3.283,1.443,3.283,3.271v114.882c0,1.824,1.482,3.307,3.268,3.307h49.961c1.783,0,3.27,1.46,3.27,3.268v23.213
				c0,1.822-1.486,3.279-3.27,3.279H269.882z"/>
			<path fill="#FFFFFF" d="M413.306,73.715c-1.801,0-3.269,1.479-3.269,3.267v116.005c0,1.822-1.458,3.279-3.28,3.279h-24.735
				c-1.798,0-3.282-1.457-3.282-3.279V76.981c0-1.787-1.477-3.267-3.275-3.267h-25.836c-1.787,0-3.244-1.484-3.244-3.273V48.317
				c0-1.827,1.457-3.271,3.244-3.271h89.508c1.788,0,3.282,1.443,3.282,3.271v22.124c0,1.789-1.494,3.273-3.282,3.273H413.306z"/>
		</g>
	</g>
	<g>
		<path fill="#FFFFFF" d="M471.278,45.36h-4.04V4.366l-6.518,4.692l0.065-4.366L467.173,0h4.105V45.36z"/>
		<path fill="#FFFFFF" d="M503.408,15.706c1.998,0,3.617,0.358,4.855,1.076c1.238,0.717,2.204,1.717,2.899,2.997
			c0.695,1.282,1.162,2.781,1.401,4.497c0.238,1.717,0.358,3.575,0.358,5.572c0,2.564-0.162,4.834-0.488,6.812
			s-0.892,3.639-1.694,4.985c-0.805,1.348-1.913,2.368-3.324,3.063c-1.412,0.694-3.205,1.042-5.377,1.042
			c-6.083,0-9.58-3.063-10.493-9.189l4.041-0.781c0.261,1.912,0.891,3.443,1.891,4.595c0.998,1.151,2.541,1.727,4.627,1.727
			c1.521,0,2.726-0.314,3.617-0.945c0.89-0.629,1.564-1.487,2.021-2.574c0.456-1.085,0.749-2.356,0.88-3.813
			c0.13-1.455,0.195-3.008,0.195-4.66c0-1.563-0.076-3.008-0.229-4.334c-0.152-1.324-0.467-2.465-0.944-3.421
			c-0.479-0.956-1.141-1.695-1.988-2.216c-0.847-0.521-1.945-0.782-3.291-0.782c-1.261,0-2.434,0.325-3.52,0.978
			c-1.087,0.651-1.934,1.478-2.542,2.477h-3.715V0h19.878v3.779h-16.228l0.13,14.664c1.043-0.999,2.172-1.704,3.389-2.118
			C500.974,15.913,502.191,15.706,503.408,15.706z"/>
	</g>
</g>
</svg>
